<?xml version="1.0" encoding="UTF-8"?>
<!--Generator: Apple Native CoreSVG 232.5-->
<!DOCTYPE svg
PUBLIC "-//W3C//DTD SVG 1.1//EN"
       "http://www.w3.org/Graphics/SVG/1.1/DTD/svg11.dtd">
<svg version="1.1" xmlns="http://www.w3.org/2000/svg" xmlns:xlink="http://www.w3.org/1999/xlink" width="3300" height="2200">
 <!--glyph: "", point size: 100.0, font version: "19.2d2e1", template writer version: "128"-->
 <style>.monochrome-0 {-sfsymbols-motion-group:1;-sfsymbols-always-pulses:true}
.monochrome-1 {-sfsymbols-motion-group:0;-sfsymbols-always-pulses:true}

.multicolor-0:tintColor {-sfsymbols-motion-group:1;-sfsymbols-always-pulses:true}
.multicolor-1:black {-sfsymbols-motion-group:0;-sfsymbols-always-pulses:true}

.hierarchical-0:primary {-sfsymbols-motion-group:1}
.hierarchical-1:secondary {-sfsymbols-motion-group:0}

.SFSymbolsPreviewWireframe {fill:none;opacity:1.0;stroke:black;stroke-width:0.5}
</style>
 <g id="Notes">
  <rect height="2200" id="artboard" style="fill:white;opacity:1" width="3300" x="0" y="0"/>
  <line style="fill:none;stroke:black;opacity:1;stroke-width:0.5;" x1="263" x2="3036" y1="292" y2="292"/>
  <text style="stroke:none;fill:black;font-family:sans-serif;font-size:13;font-weight:bold;" transform="matrix(1 0 0 1 263 322)">Weight/Scale Variations</text>
  <text style="stroke:none;fill:black;font-family:sans-serif;font-size:13;text-anchor:middle;" transform="matrix(1 0 0 1 559.711 322)">Ultralight</text>
  <text style="stroke:none;fill:black;font-family:sans-serif;font-size:13;text-anchor:middle;" transform="matrix(1 0 0 1 856.422 322)">Thin</text>
  <text style="stroke:none;fill:black;font-family:sans-serif;font-size:13;text-anchor:middle;" transform="matrix(1 0 0 1 1153.13 322)">Light</text>
  <text style="stroke:none;fill:black;font-family:sans-serif;font-size:13;text-anchor:middle;" transform="matrix(1 0 0 1 1449.84 322)">Regular</text>
  <text style="stroke:none;fill:black;font-family:sans-serif;font-size:13;text-anchor:middle;" transform="matrix(1 0 0 1 1746.56 322)">Medium</text>
  <text style="stroke:none;fill:black;font-family:sans-serif;font-size:13;text-anchor:middle;" transform="matrix(1 0 0 1 2043.27 322)">Semibold</text>
  <text style="stroke:none;fill:black;font-family:sans-serif;font-size:13;text-anchor:middle;" transform="matrix(1 0 0 1 2339.98 322)">Bold</text>
  <text style="stroke:none;fill:black;font-family:sans-serif;font-size:13;text-anchor:middle;" transform="matrix(1 0 0 1 2636.69 322)">Heavy</text>
  <text style="stroke:none;fill:black;font-family:sans-serif;font-size:13;text-anchor:middle;" transform="matrix(1 0 0 1 2933.4 322)">Black</text>
  <line style="fill:none;stroke:black;opacity:1;stroke-width:0.5;" x1="263" x2="3036" y1="1903" y2="1903"/>
  <g transform="matrix(0.2 0 0 0.2 263 1933)">
   <path d="m46.2402 4.15039c21.5332 0 39.4531-17.8711 39.4531-39.4043s-17.9688-39.4043-39.502-39.4043c-21.4844 0-39.3555 17.8711-39.3555 39.4043s17.9199 39.4043 39.4043 39.4043Zm0-7.42188c-17.7246 0-31.8848-14.209-31.8848-31.9824s14.1113-31.9824 31.8359-31.9824c17.7734 0 32.0312 14.209 32.0312 31.9824s-14.209 31.9824-31.9824 31.9824Zm-17.9688-31.9824c0 2.14844 1.51367 3.61328 3.75977 3.61328h10.498v10.5957c0 2.19727 1.46484 3.71094 3.61328 3.71094 2.24609 0 3.71094-1.51367 3.71094-3.71094v-10.5957h10.5957c2.19727 0 3.71094-1.46484 3.71094-3.61328 0-2.19727-1.51367-3.71094-3.71094-3.71094h-10.5957v-10.5469c0-2.24609-1.46484-3.75977-3.71094-3.75977-2.14844 0-3.61328 1.51367-3.61328 3.75977v10.5469h-10.498c-2.24609 0-3.75977 1.51367-3.75977 3.71094Z"/>
  </g>
  <g transform="matrix(0.2 0 0 0.2 281.506 1933)">
   <path d="m58.5449 14.5508c27.2461 0 49.8047-22.6074 49.8047-49.8047 0-27.2461-22.6074-49.8047-49.8535-49.8047-27.1973 0-49.7559 22.5586-49.7559 49.8047 0 27.1973 22.6074 49.8047 49.8047 49.8047Zm0-8.30078c-23.0469 0-41.4551-18.457-41.4551-41.5039s18.3594-41.5039 41.4062-41.5039 41.5527 18.457 41.5527 41.5039-18.457 41.5039-41.5039 41.5039Zm-22.6562-41.5039c0 2.39258 1.66016 4.00391 4.15039 4.00391h14.3555v14.4043c0 2.44141 1.66016 4.15039 4.05273 4.15039 2.44141 0 4.15039-1.66016 4.15039-4.15039v-14.4043h14.4043c2.44141 0 4.15039-1.61133 4.15039-4.00391 0-2.44141-1.70898-4.15039-4.15039-4.15039h-14.4043v-14.3555c0-2.49023-1.70898-4.19922-4.15039-4.19922-2.39258 0-4.05273 1.70898-4.05273 4.19922v14.3555h-14.3555c-2.49023 0-4.15039 1.70898-4.15039 4.15039Z"/>
  </g>
  <g transform="matrix(0.2 0 0 0.2 304.924 1933)">
   <path d="m74.8535 28.3203c34.8145 0 63.623-28.8086 63.623-63.5742 0-34.8145-28.8574-63.623-63.6719-63.623-34.7656 0-63.5254 28.8086-63.5254 63.623 0 34.7656 28.8086 63.5742 63.5742 63.5742Zm0-9.08203c-30.1758 0-54.4434-24.3164-54.4434-54.4922 0-30.2246 24.2188-54.4922 54.3945-54.4922 30.2246 0 54.541 24.2676 54.541 54.4922 0 30.1758-24.2676 54.4922-54.4922 54.4922Zm-28.8574-54.4922c0 2.58789 1.85547 4.39453 4.58984 4.39453h19.7266v19.7754c0 2.68555 1.85547 4.58984 4.44336 4.58984 2.68555 0 4.54102-1.85547 4.54102-4.58984v-19.7754h19.7754c2.68555 0 4.58984-1.80664 4.58984-4.39453 0-2.73438-1.85547-4.58984-4.58984-4.58984h-19.7754v-19.7266c0-2.73438-1.85547-4.63867-4.54102-4.63867-2.58789 0-4.44336 1.9043-4.44336 4.63867v19.7266h-19.7266c-2.73438 0-4.58984 1.85547-4.58984 4.58984Z"/>
  </g>
  <text style="stroke:none;fill:black;font-family:sans-serif;font-size:13;font-weight:bold;" transform="matrix(1 0 0 1 263 1953)">Design Variations</text>
  <text style="stroke:none;fill:black;font-family:sans-serif;font-size:13;" transform="matrix(1 0 0 1 263 1971)">Symbols are supported in up to nine weights and three scales.</text>
  <text style="stroke:none;fill:black;font-family:sans-serif;font-size:13;" transform="matrix(1 0 0 1 263 1989)">For optimal layout with text and other symbols, vertically align</text>
  <text style="stroke:none;fill:black;font-family:sans-serif;font-size:13;" transform="matrix(1 0 0 1 263 2007)">symbols with the adjacent text.</text>
  <line style="fill:none;stroke:#00AEEF;stroke-width:0.5;opacity:1.0;" x1="776" x2="776" y1="1919" y2="1933"/>
  <g transform="matrix(0.2 0 0 0.2 776 1933)">
   <path d="m16.5527 0.78125c2.58789 0 3.85742-0.976562 4.78516-3.71094l6.29883-17.2363h28.8086l6.29883 17.2363c0.927734 2.73438 2.19727 3.71094 4.73633 3.71094 2.58789 0 4.24805-1.5625 4.24805-4.00391 0-0.830078-0.146484-1.61133-0.537109-2.63672l-22.9004-60.9863c-1.12305-2.97852-3.125-4.49219-6.25-4.49219-3.02734 0-5.07812 1.46484-6.15234 4.44336l-22.9004 61.084c-0.390625 1.02539-0.537109 1.80664-0.537109 2.63672 0 2.44141 1.5625 3.95508 4.10156 3.95508Zm13.4766-28.3691 11.8652-32.8613h0.244141l11.8652 32.8613Z"/>
  </g>
  <line style="fill:none;stroke:#00AEEF;stroke-width:0.5;opacity:1.0;" x1="792.836" x2="792.836" y1="1919" y2="1933"/>
  <text style="stroke:none;fill:black;font-family:sans-serif;font-size:13;font-weight:bold;" transform="matrix(1 0 0 1 776 1953)">Margins</text>
  <text style="stroke:none;fill:black;font-family:sans-serif;font-size:13;" transform="matrix(1 0 0 1 776 1971)">Leading and trailing margins on the left and right side of each symbol</text>
  <text style="stroke:none;fill:black;font-family:sans-serif;font-size:13;" transform="matrix(1 0 0 1 776 1989)">can be adjusted by modifying the x-location of the margin guidelines.</text>
  <text style="stroke:none;fill:black;font-family:sans-serif;font-size:13;" transform="matrix(1 0 0 1 776 2007)">Modifications are automatically applied proportionally to all</text>
  <text style="stroke:none;fill:black;font-family:sans-serif;font-size:13;" transform="matrix(1 0 0 1 776 2025)">scales and weights.</text>
  <g transform="matrix(0.2 0 0 0.2 1289 1933)">
   <path d="m14.209 9.32617 8.49609 8.54492c4.29688 4.3457 9.22852 4.05273 13.8672-1.07422l53.4668-58.9355-4.83398-4.88281-53.0762 58.3984c-1.75781 2.00195-3.41797 2.49023-5.76172 0.146484l-5.85938-5.81055c-2.34375-2.29492-1.80664-4.00391 0.195312-5.81055l57.373-54.0039-4.88281-4.83398-57.959 54.4434c-4.93164 4.58984-5.32227 9.47266-1.02539 13.8184Zm32.0801-90.9668c-2.09961 2.05078-2.24609 4.93164-1.07422 6.88477 1.17188 1.80664 3.4668 2.97852 6.68945 2.14844 7.32422-1.70898 14.9414-2.00195 22.0703 2.68555l-2.92969 7.27539c-1.70898 4.15039-0.830078 7.08008 1.85547 9.81445l11.4746 11.5723c2.44141 2.44141 4.49219 2.53906 7.32422 2.05078l5.32227-0.976562 3.32031 3.36914-0.195312 2.7832c-0.195312 2.49023 0.439453 4.39453 2.88086 6.78711l3.80859 3.71094c2.39258 2.39258 5.46875 2.53906 7.8125 0.195312l14.5508-14.5996c2.34375-2.34375 2.24609-5.32227-0.146484-7.71484l-3.85742-3.80859c-2.39258-2.39258-4.24805-3.17383-6.64062-2.97852l-2.88086 0.244141-3.22266-3.17383 1.2207-5.61523c0.634766-2.83203-0.146484-5.0293-3.07617-7.95898l-10.9863-10.9375c-16.6992-16.6016-38.8672-16.2109-53.3203-1.75781Zm7.4707 1.85547c12.1582-8.88672 28.6133-7.37305 39.7461 3.75977l12.1582 12.0605c1.17188 1.17188 1.36719 2.09961 1.02539 3.80859l-1.61133 7.42188 7.51953 7.42188 4.93164-0.292969c1.26953-0.0488281 1.66016 0.0488281 2.63672 1.02539l2.88086 2.88086-12.207 12.207-2.88086-2.88086c-0.976562-0.976562-1.12305-1.36719-1.07422-2.68555l0.341797-4.88281-7.4707-7.42188-7.61719 1.26953c-1.61133 0.341797-2.34375 0.195312-3.56445-0.976562l-10.0098-10.0098c-1.26953-1.17188-1.41602-2.00195-0.634766-3.85742l4.39453-10.4492c-7.8125-7.27539-17.9688-10.4004-28.125-7.42188-0.78125 0.195312-1.07422-0.439453-0.439453-0.976562Z"/>
  </g>
  <text style="stroke:none;fill:black;font-family:sans-serif;font-size:13;font-weight:bold;" transform="matrix(1 0 0 1 1289 1953)">Exporting</text>
  <text style="stroke:none;fill:black;font-family:sans-serif;font-size:13;" transform="matrix(1 0 0 1 1289 1971)">Symbols should be outlined when exporting to ensure the</text>
  <text style="stroke:none;fill:black;font-family:sans-serif;font-size:13;" transform="matrix(1 0 0 1 1289 1989)">design is preserved when submitting to Xcode.</text>
  <text id="template-version" style="stroke:none;fill:black;font-family:sans-serif;font-size:13;text-anchor:end;" transform="matrix(1 0 0 1 3036 1933)">Template v.5.0</text>
  <text style="stroke:none;fill:black;font-family:sans-serif;font-size:13;text-anchor:end;" transform="matrix(1 0 0 1 3036 1951)">Requires Xcode 15 or greater</text>
  <text id="descriptive-name" style="stroke:none;fill:black;font-family:sans-serif;font-size:13;text-anchor:end;" transform="matrix(1 0 0 1 3036 1969)">Generated from customPen.4</text>
  <text style="stroke:none;fill:black;font-family:sans-serif;font-size:13;text-anchor:end;" transform="matrix(1 0 0 1 3036 1987)">Typeset at 100.0 points</text>
  <text style="stroke:none;fill:black;font-family:sans-serif;font-size:13;" transform="matrix(1 0 0 1 263 726)">Small</text>
  <text style="stroke:none;fill:black;font-family:sans-serif;font-size:13;" transform="matrix(1 0 0 1 263 1156)">Medium</text>
  <text style="stroke:none;fill:black;font-family:sans-serif;font-size:13;" transform="matrix(1 0 0 1 263 1586)">Large</text>
 </g>
 <g id="Guides">
  <g id="H-reference" style="fill:#27AAE1;stroke:none;" transform="matrix(1 0 0 1 339 696)">
   <path d="M0.993654 0L3.63775 0L29.3281-67.1323L30.0303-67.1323L30.0303-70.459L28.1226-70.459ZM11.6885-24.4799L46.9815-24.4799L46.2315-26.7285L12.4385-26.7285ZM55.1196 0L57.7637 0L30.6382-70.459L29.4326-70.459L29.4326-67.1323Z"/>
  </g>
  <line id="Baseline-S" style="fill:none;stroke:#27AAE1;opacity:1;stroke-width:0.5;" x1="263" x2="3036" y1="696" y2="696"/>
  <line id="Capline-S" style="fill:none;stroke:#27AAE1;opacity:1;stroke-width:0.5;" x1="263" x2="3036" y1="625.541" y2="625.541"/>
  <g id="H-reference" style="fill:#27AAE1;stroke:none;" transform="matrix(1 0 0 1 339 1126)">
   <path d="M0.993654 0L3.63775 0L29.3281-67.1323L30.0303-67.1323L30.0303-70.459L28.1226-70.459ZM11.6885-24.4799L46.9815-24.4799L46.2315-26.7285L12.4385-26.7285ZM55.1196 0L57.7637 0L30.6382-70.459L29.4326-70.459L29.4326-67.1323Z"/>
  </g>
  <line id="Baseline-M" style="fill:none;stroke:#27AAE1;opacity:1;stroke-width:0.5;" x1="263" x2="3036" y1="1126" y2="1126"/>
  <line id="Capline-M" style="fill:none;stroke:#27AAE1;opacity:1;stroke-width:0.5;" x1="263" x2="3036" y1="1055.54" y2="1055.54"/>
  <g id="H-reference" style="fill:#27AAE1;stroke:none;" transform="matrix(1 0 0 1 339 1556)">
   <path d="M0.993654 0L3.63775 0L29.3281-67.1323L30.0303-67.1323L30.0303-70.459L28.1226-70.459ZM11.6885-24.4799L46.9815-24.4799L46.2315-26.7285L12.4385-26.7285ZM55.1196 0L57.7637 0L30.6382-70.459L29.4326-70.459L29.4326-67.1323Z"/>
  </g>
  <line id="Baseline-L" style="fill:none;stroke:#27AAE1;opacity:1;stroke-width:0.5;" x1="263" x2="3036" y1="1556" y2="1556"/>
  <line id="Capline-L" style="fill:none;stroke:#27AAE1;opacity:1;stroke-width:0.5;" x1="263" x2="3036" y1="1485.54" y2="1485.54"/>
  <line id="left-margin-Ultralight-S" style="fill:none;stroke:#00AEEF;stroke-width:0.5;opacity:1.0;" x1="515.335" x2="515.335" y1="600.785" y2="720.121"/>
  <line id="right-margin-Ultralight-S" style="fill:none;stroke:#00AEEF;stroke-width:0.5;opacity:1.0;" x1="604.088" x2="604.088" y1="600.785" y2="720.121"/>
  <line id="left-margin-Regular-S" style="fill:none;stroke:#00AEEF;stroke-width:0.5;opacity:1.0;" x1="1402.33" x2="1402.33" y1="600.785" y2="720.121"/>
  <line id="right-margin-Regular-S" style="fill:none;stroke:#00AEEF;stroke-width:0.5;opacity:1.0;" x1="1497.35" x2="1497.35" y1="600.785" y2="720.121"/>
  <line id="left-margin-Black-S" style="fill:none;stroke:#00AEEF;stroke-width:0.5;opacity:1.0;" x1="2879.35" x2="2879.35" y1="600.785" y2="720.121"/>
  <line id="right-margin-Black-S" style="fill:none;stroke:#00AEEF;stroke-width:0.5;opacity:1.0;" x1="2987.45" x2="2987.45" y1="600.785" y2="720.121"/>
 </g>
 <g id="Symbols">
  <g id="Black-S" transform="matrix(1 0 0 1 2879.35 696)">
   <path class="monochrome-0 multicolor-0:tintColor hierarchical-0:primary SFSymbolsPreviewWireframe" d="M17.967-1.75946C17.3851-2.0254 16.9046-2.51333 16.6635-3.16022C16.4858-3.63721 16.4578-4.15711 16.5835-4.6504L19.6801-16.8067C19.8505-17.4756 20.276-18.0122 20.826-18.339C21.3761-18.6657 22.0509-18.7826 22.7199-18.6122C23.1142-18.5117 23.478-18.3165 23.7798-18.0436L32.394-10.2518C32.9059-9.78865 33.1817-9.16186 33.2138-8.52286C33.2458-7.88386 33.0341-7.23264 32.571-6.72065C32.302-6.42336 31.9656-6.1951 31.59-6.0551L19.8792-1.69067C19.2323-1.44958 18.5489-1.49353 17.967-1.75946ZM57.5878-68.275L78.4929-49.3657C79.4115-48.5348 79.9079-47.4107 79.9681-46.2639C80.0282-45.117 79.6519-43.9473 78.8252-43.0249L74.3906-38.0772C73.5612-37.1518 72.4353-36.6503 71.2854-36.5874C70.1354-36.5245 68.9615-36.9003 68.0378-37.7281L47.1327-56.6375C46.2141-57.4684 45.7177-58.5924 45.6576-59.7392C45.5975-60.8861 45.9737-62.0559 46.8004-62.9782L51.235-67.9259C52.0644-68.8513 53.1904-69.3529 54.3403-69.4158C55.4902-69.4786 56.6641-69.1029 57.5878-68.275ZM29.2361-42.6477L57.6482-18.6978L55.7783-16.4591L27.3662-40.409L29.2361-42.6477Z"/>
   <path class="monochrome-1 multicolor-1:black hierarchical-1:secondary SFSymbolsPreviewWireframe" d="M63.7024-62.8559L72.7685-54.6554C75.3202-52.3474 76.6992-49.2251 76.8661-46.0394C77.0331-42.8536 75.988-39.6044 73.6916-37.0422L48.5694-9.01318C46.2655-6.44276 43.1379-5.0495 39.9436-4.87481C36.7494-4.70012 33.4885-5.74399 30.9198-8.04632L21.8536-16.2468C19.302-18.5548 17.923-21.6771 17.756-24.8628C17.5891-28.0486 18.6341-31.2978 20.9306-33.86L46.0528-61.889C48.3566-64.4594 51.4842-65.8527 54.6785-66.0274C57.8727-66.2021 61.1336-65.1582 63.7024-62.8559ZM70.0264-66.4227L75.7757-61.2223C76.0819-60.9453 76.2474-60.5707 76.2674-60.1884C76.2875-59.8061 76.162-59.4162 75.8865-59.1087L73.3285-56.2547C73.052-55.9463 72.6767-55.7791 72.2934-55.7581C71.9101-55.7372 71.5188-55.8624 71.212-56.1374L65.4627-61.3378C65.1565-61.6148 64.991-61.9894 64.971-62.3717C64.9509-62.754 65.0763-63.1439 65.3519-63.4514L67.9099-66.3054C68.1864-66.6138 68.5617-66.781 68.945-66.802C69.3283-66.823 69.7196-66.6977 70.0264-66.4227Z"/>
  </g>
  <g id="Regular-S" transform="matrix(1 0 0 1 1402.33 696)">
   <path class="monochrome-0 multicolor-0:tintColor hierarchical-0:primary SFSymbolsPreviewWireframe" d="M19.987-0.759461C19.4051-1.0254 18.9246-1.51333 18.6835-2.16022C18.5058-2.63721 18.4778-3.15711 18.6035-3.6504L21.7001-15.8067C21.8705-16.4756 22.296-17.0122 22.846-17.339C23.3961-17.6657 24.0709-17.7826 24.7399-17.6122C25.1342-17.5117 25.498-17.3165 25.7998-17.0436L34.414-9.25175C34.9259-8.78865 35.2017-8.16186 35.2338-7.52286C35.2658-6.88386 35.0541-6.23264 34.591-5.72065C34.322-5.42336 33.9856-5.1951 33.61-5.0551L21.8992-0.690671C21.2523-0.449584 20.5689-0.493525 19.987-0.759461ZM59.6078-67.275L80.5129-48.3657C81.4315-47.5348 81.9279-46.4107 81.9881-45.2639C82.0482-44.117 81.6719-42.9473 80.8452-42.0249L76.4106-37.0772C75.5812-36.1518 74.4553-35.6503 73.3054-35.5874C72.1554-35.5245 70.9815-35.9003 70.0578-36.7281L49.1527-55.6375C48.2341-56.4684 47.7377-57.5924 47.6776-58.7392C47.6175-59.8861 47.9937-61.0559 48.8204-61.9782L53.255-66.9259C54.0844-67.8513 55.2104-68.3529 56.3603-68.4158C57.5102-68.4786 58.6841-68.1029 59.6078-67.275ZM31.2561-41.6477L59.6682-17.6978L57.7983-15.4591L29.3862-39.409L31.2561-41.6477Z"/>
   <path class="monochrome-1 multicolor-1:black hierarchical-1:secondary SFSymbolsPreviewWireframe" d="M65.7224-61.8559L74.7885-53.6554C77.3402-51.3474 78.7192-48.2251 78.8861-45.0394C79.0531-41.8536 78.008-38.6044 75.7116-36.0422L50.5894-8.01318C48.2855-5.44276 45.1579-4.0495 41.9636-3.87481C38.7694-3.70012 35.5085-4.74399 32.9398-7.04632L23.8736-15.2468C21.322-17.5548 19.943-20.6771 19.776-23.8628C19.6091-27.0486 20.6541-30.2978 22.9506-32.86L48.0728-60.889C50.3766-63.4594 53.5042-64.8527 56.6985-65.0274C59.8927-65.2021 63.1536-64.1582 65.7224-61.8559ZM72.0464-65.4227L77.7957-60.2223C78.1019-59.9453 78.2674-59.5707 78.2874-59.1884C78.3075-58.8061 78.182-58.4162 77.9065-58.1087L75.3485-55.2547C75.072-54.9463 74.6967-54.7791 74.3134-54.7581C73.9301-54.7372 73.5388-54.8624 73.232-55.1374L67.4827-60.3378C67.1765-60.6148 67.011-60.9894 66.991-61.3717C66.9709-61.754 67.0963-62.1439 67.3719-62.4514L69.9299-65.3054C70.2064-65.6138 70.5817-65.781 70.965-65.802C71.3483-65.823 71.7396-65.6977 72.0464-65.4227Z"/>
  </g>
  <g id="Ultralight-S" transform="matrix(1 0 0 1 515.335 696)">
   <path class="monochrome-0 multicolor-0:tintColor hierarchical-0:primary SFSymbolsPreviewWireframe" d="M25.003-1.87486C24.4211-2.1408 23.9406-2.62873 23.6995-3.27562C23.5218-3.75261 23.4938-4.27251 23.6195-4.7658L26.7161-16.9221C26.8865-17.591 27.312-18.1276 27.862-18.4544C28.4121-18.7811 29.0869-18.898 29.7559-18.7276C30.1502-18.6271 30.514-18.4319 30.8158-18.159L39.43-10.3672C39.9419-9.90405 40.2177-9.27726 40.2498-8.63826C40.2818-7.99926 40.0701-7.34804 39.607-6.83605C39.338-6.53876 39.0016-6.3105 38.626-6.1705L26.9152-1.80607C26.2683-1.56498 25.5849-1.60893 25.003-1.87486ZM64.6238-68.3904L85.5289-49.4811C86.4475-48.6502 86.9439-47.5261 87.0041-46.3793C87.0642-45.2324 86.6879-44.0627 85.8612-43.1403L81.4266-38.1926C80.5972-37.2672 79.4713-36.7657 78.3214-36.7028C77.1714-36.6399 75.9975-37.0157 75.0738-37.8435L54.1687-56.7529C53.2501-57.5838 52.7537-58.7078 52.6936-59.8546C52.6335-61.0015 53.0097-62.1713 53.8364-63.0936L58.271-68.0413C59.1004-68.9667 60.2264-69.4683 61.3763-69.5312C62.5262-69.594 63.7001-69.2183 64.6238-68.3904ZM36.2721-42.7631L64.6842-18.8132L62.8143-16.5745L34.4022-40.5244L36.2721-42.7631Z"/>
   <path class="monochrome-1 multicolor-1:black hierarchical-1:secondary SFSymbolsPreviewWireframe" d="M70.7384-62.9713L79.8045-54.7708C82.3562-52.4628 83.7352-49.3405 83.9021-46.1548C84.0691-42.969 83.024-39.7198 80.7276-37.1576L55.6054-9.12858C53.3015-6.55816 50.1739-5.1649 46.9796-4.99021C43.7854-4.81552 40.5245-5.85939 37.9558-8.16172L28.8896-16.3622C26.338-18.6702 24.959-21.7925 24.792-24.9782C24.6251-28.164 25.6701-31.4132 27.9666-33.9754L53.0888-62.0044C55.3926-64.5748 58.5202-65.9681 61.7145-66.1428C64.9087-66.3175 68.1696-65.2736 70.7384-62.9713ZM77.0624-66.5381L82.8117-61.3377C83.1179-61.0607 83.2834-60.6861 83.3034-60.3038C83.3235-59.9215 83.198-59.5316 82.9225-59.2241L80.3645-56.3701C80.088-56.0617 79.7127-55.8945 79.3294-55.8735C78.9461-55.8526 78.5548-55.9778 78.248-56.2528L72.4987-61.4532C72.1925-61.7302 72.027-62.1048 72.007-62.4871C71.9869-62.8694 72.1123-63.2593 72.3879-63.5668L74.9459-66.4208C75.2224-66.7292 75.5977-66.8964 75.981-66.9174C76.3643-66.9384 76.7556-66.8131 77.0624-66.5381Z"/>
  </g>
 </g>
</svg>
