<?xml version="1.0" encoding="UTF-8"?>
<!--Generator: Apple Native CoreSVG 232.5-->
<!DOCTYPE svg
PUBLIC "-//W3C//DTD SVG 1.1//EN"
       "http://www.w3.org/Graphics/SVG/1.1/DTD/svg11.dtd">
<svg version="1.1" xmlns="http://www.w3.org/2000/svg" xmlns:xlink="http://www.w3.org/1999/xlink" width="3300" height="2200">
 <!--glyph: "", point size: 100.0, font version: "19.2d2e1", template writer version: "128"-->
 <style>.monochrome-0 {-sfsymbols-motion-group:1}
.monochrome-1 {-sfsymbols-motion-group:0}

.multicolor-0:tintColor {-sfsymbols-motion-group:1}
.multicolor-1:tintColor {-sfsymbols-motion-group:0}

.hierarchical-0:primary {-sfsymbols-motion-group:1}
.hierarchical-1:secondary {-sfsymbols-motion-group:0}

.SFSymbolsPreviewWireframe {fill:none;opacity:1.0;stroke:black;stroke-width:0.5}
</style>
 <g id="Notes">
  <rect height="2200" id="artboard" style="fill:white;opacity:1" width="3300" x="0" y="0"/>
  <line style="fill:none;stroke:black;opacity:1;stroke-width:0.5;" x1="263" x2="3036" y1="292" y2="292"/>
  <text style="stroke:none;fill:black;font-family:sans-serif;font-size:13;font-weight:bold;" transform="matrix(1 0 0 1 263 322)">Weight/Scale Variations</text>
  <text style="stroke:none;fill:black;font-family:sans-serif;font-size:13;text-anchor:middle;" transform="matrix(1 0 0 1 559.711 322)">Ultralight</text>
  <text style="stroke:none;fill:black;font-family:sans-serif;font-size:13;text-anchor:middle;" transform="matrix(1 0 0 1 856.422 322)">Thin</text>
  <text style="stroke:none;fill:black;font-family:sans-serif;font-size:13;text-anchor:middle;" transform="matrix(1 0 0 1 1153.13 322)">Light</text>
  <text style="stroke:none;fill:black;font-family:sans-serif;font-size:13;text-anchor:middle;" transform="matrix(1 0 0 1 1449.84 322)">Regular</text>
  <text style="stroke:none;fill:black;font-family:sans-serif;font-size:13;text-anchor:middle;" transform="matrix(1 0 0 1 1746.56 322)">Medium</text>
  <text style="stroke:none;fill:black;font-family:sans-serif;font-size:13;text-anchor:middle;" transform="matrix(1 0 0 1 2043.27 322)">Semibold</text>
  <text style="stroke:none;fill:black;font-family:sans-serif;font-size:13;text-anchor:middle;" transform="matrix(1 0 0 1 2339.98 322)">Bold</text>
  <text style="stroke:none;fill:black;font-family:sans-serif;font-size:13;text-anchor:middle;" transform="matrix(1 0 0 1 2636.69 322)">Heavy</text>
  <text style="stroke:none;fill:black;font-family:sans-serif;font-size:13;text-anchor:middle;" transform="matrix(1 0 0 1 2933.4 322)">Black</text>
  <line style="fill:none;stroke:black;opacity:1;stroke-width:0.5;" x1="263" x2="3036" y1="1903" y2="1903"/>
  <g transform="matrix(0.2 0 0 0.2 263 1933)">
   <path d="m46.2402 4.15039c21.5332 0 39.4531-17.8711 39.4531-39.4043s-17.9688-39.4043-39.502-39.4043c-21.4844 0-39.3555 17.8711-39.3555 39.4043s17.9199 39.4043 39.4043 39.4043Zm0-7.42188c-17.7246 0-31.8848-14.209-31.8848-31.9824s14.1113-31.9824 31.8359-31.9824c17.7734 0 32.0312 14.209 32.0312 31.9824s-14.209 31.9824-31.9824 31.9824Zm-17.9688-31.9824c0 2.14844 1.51367 3.61328 3.75977 3.61328h10.498v10.5957c0 2.19727 1.46484 3.71094 3.61328 3.71094 2.24609 0 3.71094-1.51367 3.71094-3.71094v-10.5957h10.5957c2.19727 0 3.71094-1.46484 3.71094-3.61328 0-2.19727-1.51367-3.71094-3.71094-3.71094h-10.5957v-10.5469c0-2.24609-1.46484-3.75977-3.71094-3.75977-2.14844 0-3.61328 1.51367-3.61328 3.75977v10.5469h-10.498c-2.24609 0-3.75977 1.51367-3.75977 3.71094Z"/>
  </g>
  <g transform="matrix(0.2 0 0 0.2 281.506 1933)">
   <path d="m58.5449 14.5508c27.2461 0 49.8047-22.6074 49.8047-49.8047 0-27.2461-22.6074-49.8047-49.8535-49.8047-27.1973 0-49.7559 22.5586-49.7559 49.8047 0 27.1973 22.6074 49.8047 49.8047 49.8047Zm0-8.30078c-23.0469 0-41.4551-18.457-41.4551-41.5039s18.3594-41.5039 41.4062-41.5039 41.5527 18.457 41.5527 41.5039-18.457 41.5039-41.5039 41.5039Zm-22.6562-41.5039c0 2.39258 1.66016 4.00391 4.15039 4.00391h14.3555v14.4043c0 2.44141 1.66016 4.15039 4.05273 4.15039 2.44141 0 4.15039-1.66016 4.15039-4.15039v-14.4043h14.4043c2.44141 0 4.15039-1.61133 4.15039-4.00391 0-2.44141-1.70898-4.15039-4.15039-4.15039h-14.4043v-14.3555c0-2.49023-1.70898-4.19922-4.15039-4.19922-2.39258 0-4.05273 1.70898-4.05273 4.19922v14.3555h-14.3555c-2.49023 0-4.15039 1.70898-4.15039 4.15039Z"/>
  </g>
  <g transform="matrix(0.2 0 0 0.2 304.924 1933)">
   <path d="m74.8535 28.3203c34.8145 0 63.623-28.8086 63.623-63.5742 0-34.8145-28.8574-63.623-63.6719-63.623-34.7656 0-63.5254 28.8086-63.5254 63.623 0 34.7656 28.8086 63.5742 63.5742 63.5742Zm0-9.08203c-30.1758 0-54.4434-24.3164-54.4434-54.4922 0-30.2246 24.2188-54.4922 54.3945-54.4922 30.2246 0 54.541 24.2676 54.541 54.4922 0 30.1758-24.2676 54.4922-54.4922 54.4922Zm-28.8574-54.4922c0 2.58789 1.85547 4.39453 4.58984 4.39453h19.7266v19.7754c0 2.68555 1.85547 4.58984 4.44336 4.58984 2.68555 0 4.54102-1.85547 4.54102-4.58984v-19.7754h19.7754c2.68555 0 4.58984-1.80664 4.58984-4.39453 0-2.73438-1.85547-4.58984-4.58984-4.58984h-19.7754v-19.7266c0-2.73438-1.85547-4.63867-4.54102-4.63867-2.58789 0-4.44336 1.9043-4.44336 4.63867v19.7266h-19.7266c-2.73438 0-4.58984 1.85547-4.58984 4.58984Z"/>
  </g>
  <text style="stroke:none;fill:black;font-family:sans-serif;font-size:13;font-weight:bold;" transform="matrix(1 0 0 1 263 1953)">Design Variations</text>
  <text style="stroke:none;fill:black;font-family:sans-serif;font-size:13;" transform="matrix(1 0 0 1 263 1971)">Symbols are supported in up to nine weights and three scales.</text>
  <text style="stroke:none;fill:black;font-family:sans-serif;font-size:13;" transform="matrix(1 0 0 1 263 1989)">For optimal layout with text and other symbols, vertically align</text>
  <text style="stroke:none;fill:black;font-family:sans-serif;font-size:13;" transform="matrix(1 0 0 1 263 2007)">symbols with the adjacent text.</text>
  <line style="fill:none;stroke:#00AEEF;stroke-width:0.5;opacity:1.0;" x1="776" x2="776" y1="1919" y2="1933"/>
  <g transform="matrix(0.2 0 0 0.2 776 1933)">
   <path d="m16.5527 0.78125c2.58789 0 3.85742-0.976562 4.78516-3.71094l6.29883-17.2363h28.8086l6.29883 17.2363c0.927734 2.73438 2.19727 3.71094 4.73633 3.71094 2.58789 0 4.24805-1.5625 4.24805-4.00391 0-0.830078-0.146484-1.61133-0.537109-2.63672l-22.9004-60.9863c-1.12305-2.97852-3.125-4.49219-6.25-4.49219-3.02734 0-5.07812 1.46484-6.15234 4.44336l-22.9004 61.084c-0.390625 1.02539-0.537109 1.80664-0.537109 2.63672 0 2.44141 1.5625 3.95508 4.10156 3.95508Zm13.4766-28.3691 11.8652-32.8613h0.244141l11.8652 32.8613Z"/>
  </g>
  <line style="fill:none;stroke:#00AEEF;stroke-width:0.5;opacity:1.0;" x1="792.836" x2="792.836" y1="1919" y2="1933"/>
  <text style="stroke:none;fill:black;font-family:sans-serif;font-size:13;font-weight:bold;" transform="matrix(1 0 0 1 776 1953)">Margins</text>
  <text style="stroke:none;fill:black;font-family:sans-serif;font-size:13;" transform="matrix(1 0 0 1 776 1971)">Leading and trailing margins on the left and right side of each symbol</text>
  <text style="stroke:none;fill:black;font-family:sans-serif;font-size:13;" transform="matrix(1 0 0 1 776 1989)">can be adjusted by modifying the x-location of the margin guidelines.</text>
  <text style="stroke:none;fill:black;font-family:sans-serif;font-size:13;" transform="matrix(1 0 0 1 776 2007)">Modifications are automatically applied proportionally to all</text>
  <text style="stroke:none;fill:black;font-family:sans-serif;font-size:13;" transform="matrix(1 0 0 1 776 2025)">scales and weights.</text>
  <g transform="matrix(0.2 0 0 0.2 1289 1933)">
   <path d="m14.209 9.32617 8.49609 8.54492c4.29688 4.3457 9.22852 4.05273 13.8672-1.07422l53.4668-58.9355-4.83398-4.88281-53.0762 58.3984c-1.75781 2.00195-3.41797 2.49023-5.76172 0.146484l-5.85938-5.81055c-2.34375-2.29492-1.80664-4.00391 0.195312-5.81055l57.373-54.0039-4.88281-4.83398-57.959 54.4434c-4.93164 4.58984-5.32227 9.47266-1.02539 13.8184Zm32.0801-90.9668c-2.09961 2.05078-2.24609 4.93164-1.07422 6.88477 1.17188 1.80664 3.4668 2.97852 6.68945 2.14844 7.32422-1.70898 14.9414-2.00195 22.0703 2.68555l-2.92969 7.27539c-1.70898 4.15039-0.830078 7.08008 1.85547 9.81445l11.4746 11.5723c2.44141 2.44141 4.49219 2.53906 7.32422 2.05078l5.32227-0.976562 3.32031 3.36914-0.195312 2.7832c-0.195312 2.49023 0.439453 4.39453 2.88086 6.78711l3.80859 3.71094c2.39258 2.39258 5.46875 2.53906 7.8125 0.195312l14.5508-14.5996c2.34375-2.34375 2.24609-5.32227-0.146484-7.71484l-3.85742-3.80859c-2.39258-2.39258-4.24805-3.17383-6.64062-2.97852l-2.88086 0.244141-3.22266-3.17383 1.2207-5.61523c0.634766-2.83203-0.146484-5.0293-3.07617-7.95898l-10.9863-10.9375c-16.6992-16.6016-38.8672-16.2109-53.3203-1.75781Zm7.4707 1.85547c12.1582-8.88672 28.6133-7.37305 39.7461 3.75977l12.1582 12.0605c1.17188 1.17188 1.36719 2.09961 1.02539 3.80859l-1.61133 7.42188 7.51953 7.42188 4.93164-0.292969c1.26953-0.0488281 1.66016 0.0488281 2.63672 1.02539l2.88086 2.88086-12.207 12.207-2.88086-2.88086c-0.976562-0.976562-1.12305-1.36719-1.07422-2.68555l0.341797-4.88281-7.4707-7.42188-7.61719 1.26953c-1.61133 0.341797-2.34375 0.195312-3.56445-0.976562l-10.0098-10.0098c-1.26953-1.17188-1.41602-2.00195-0.634766-3.85742l4.39453-10.4492c-7.8125-7.27539-17.9688-10.4004-28.125-7.42188-0.78125 0.195312-1.07422-0.439453-0.439453-0.976562Z"/>
  </g>
  <text style="stroke:none;fill:black;font-family:sans-serif;font-size:13;font-weight:bold;" transform="matrix(1 0 0 1 1289 1953)">Exporting</text>
  <text style="stroke:none;fill:black;font-family:sans-serif;font-size:13;" transform="matrix(1 0 0 1 1289 1971)">Symbols should be outlined when exporting to ensure the</text>
  <text style="stroke:none;fill:black;font-family:sans-serif;font-size:13;" transform="matrix(1 0 0 1 1289 1989)">design is preserved when submitting to Xcode.</text>
  <text id="template-version" style="stroke:none;fill:black;font-family:sans-serif;font-size:13;text-anchor:end;" transform="matrix(1 0 0 1 3036 1933)">Template v.5.0</text>
  <text style="stroke:none;fill:black;font-family:sans-serif;font-size:13;text-anchor:end;" transform="matrix(1 0 0 1 3036 1951)">Requires Xcode 15 or greater</text>
  <text id="descriptive-name" style="stroke:none;fill:black;font-family:sans-serif;font-size:13;text-anchor:end;" transform="matrix(1 0 0 1 3036 1969)">Generated from highlighter.3</text>
  <text style="stroke:none;fill:black;font-family:sans-serif;font-size:13;text-anchor:end;" transform="matrix(1 0 0 1 3036 1987)">Typeset at 100.0 points</text>
  <text style="stroke:none;fill:black;font-family:sans-serif;font-size:13;" transform="matrix(1 0 0 1 263 726)">Small</text>
  <text style="stroke:none;fill:black;font-family:sans-serif;font-size:13;" transform="matrix(1 0 0 1 263 1156)">Medium</text>
  <text style="stroke:none;fill:black;font-family:sans-serif;font-size:13;" transform="matrix(1 0 0 1 263 1586)">Large</text>
 </g>
 <g id="Guides">
  <g id="H-reference" style="fill:#27AAE1;stroke:none;" transform="matrix(1 0 0 1 339 696)">
   <path d="M0.993654 0L3.63775 0L29.3281-67.1323L30.0303-67.1323L30.0303-70.459L28.1226-70.459ZM11.6885-24.4799L46.9815-24.4799L46.2315-26.7285L12.4385-26.7285ZM55.1196 0L57.7637 0L30.6382-70.459L29.4326-70.459L29.4326-67.1323Z"/>
  </g>
  <line id="Baseline-S" style="fill:none;stroke:#27AAE1;opacity:1;stroke-width:0.5;" x1="263" x2="3036" y1="696" y2="696"/>
  <line id="Capline-S" style="fill:none;stroke:#27AAE1;opacity:1;stroke-width:0.5;" x1="263" x2="3036" y1="625.541" y2="625.541"/>
  <g id="H-reference" style="fill:#27AAE1;stroke:none;" transform="matrix(1 0 0 1 339 1126)">
   <path d="M0.993654 0L3.63775 0L29.3281-67.1323L30.0303-67.1323L30.0303-70.459L28.1226-70.459ZM11.6885-24.4799L46.9815-24.4799L46.2315-26.7285L12.4385-26.7285ZM55.1196 0L57.7637 0L30.6382-70.459L29.4326-70.459L29.4326-67.1323Z"/>
  </g>
  <line id="Baseline-M" style="fill:none;stroke:#27AAE1;opacity:1;stroke-width:0.5;" x1="263" x2="3036" y1="1126" y2="1126"/>
  <line id="Capline-M" style="fill:none;stroke:#27AAE1;opacity:1;stroke-width:0.5;" x1="263" x2="3036" y1="1055.54" y2="1055.54"/>
  <g id="H-reference" style="fill:#27AAE1;stroke:none;" transform="matrix(1 0 0 1 339 1556)">
   <path d="M0.993654 0L3.63775 0L29.3281-67.1323L30.0303-67.1323L30.0303-70.459L28.1226-70.459ZM11.6885-24.4799L46.9815-24.4799L46.2315-26.7285L12.4385-26.7285ZM55.1196 0L57.7637 0L30.6382-70.459L29.4326-70.459L29.4326-67.1323Z"/>
  </g>
  <line id="Baseline-L" style="fill:none;stroke:#27AAE1;opacity:1;stroke-width:0.5;" x1="263" x2="3036" y1="1556" y2="1556"/>
  <line id="Capline-L" style="fill:none;stroke:#27AAE1;opacity:1;stroke-width:0.5;" x1="263" x2="3036" y1="1485.54" y2="1485.54"/>
  <line id="left-margin-Ultralight-S" style="fill:none;stroke:#00AEEF;stroke-width:0.5;opacity:1.0;" x1="515.335" x2="515.335" y1="600.785" y2="720.121"/>
  <line id="right-margin-Ultralight-S" style="fill:none;stroke:#00AEEF;stroke-width:0.5;opacity:1.0;" x1="604.088" x2="604.088" y1="600.785" y2="720.121"/>
  <line id="left-margin-Regular-S" style="fill:none;stroke:#00AEEF;stroke-width:0.5;opacity:1.0;" x1="1402.33" x2="1402.33" y1="600.785" y2="720.121"/>
  <line id="right-margin-Regular-S" style="fill:none;stroke:#00AEEF;stroke-width:0.5;opacity:1.0;" x1="1497.35" x2="1497.35" y1="600.785" y2="720.121"/>
  <line id="left-margin-Black-S" style="fill:none;stroke:#00AEEF;stroke-width:0.5;opacity:1.0;" x1="2879.35" x2="2879.35" y1="600.785" y2="720.121"/>
  <line id="right-margin-Black-S" style="fill:none;stroke:#00AEEF;stroke-width:0.5;opacity:1.0;" x1="2987.45" x2="2987.45" y1="600.785" y2="720.121"/>
 </g>
 <g id="Symbols">
  <g id="Black-S" transform="matrix(1 0 0 1 2879.35 696)">
   <path class="monochrome-0 multicolor-0:tintColor hierarchical-0:primary SFSymbolsPreviewWireframe" d="M31.7574-6.34407L29.479-8.84943L26.826-11.0508L30.1479-16.8827L38.6967-9.78902L39.2037-11.8394L41.1617-9.68656ZM68.5656-68.5891L89.0749-50.5467C89.9761-49.7539 90.4631-48.6814 90.5221-47.5871C90.5811-46.4928 90.212-45.3767 89.4013-44.4962L85.0503-39.7757C84.2366-38.8928 83.132-38.4142 82.0038-38.3542C80.8757-38.2942 79.724-38.6528 78.8178-39.4427L58.3085-57.4851C57.4073-58.2779 56.9203-59.3504 56.8613-60.4447C56.8024-61.539 57.1715-62.6551 57.9821-63.5356L62.3332-68.2561C63.1468-69.139 64.2515-69.6176 65.3796-69.6776C66.5078-69.7376 67.6595-69.379 68.5656-68.5891Z"/>
   <path class="monochrome-1 multicolor-1:tintColor hierarchical-1:secondary SFSymbolsPreviewWireframe" d="M29.5937-22.705C29.9455-23.271 30.5194-23.7066 31.2319-23.8774C32.0755-24.0796 32.9676-23.868 33.6207-23.3106L46.0916-12.6679C46.6007-12.2334 46.8805-11.6394 46.9214-11.0302C46.9623-10.421 46.7642-9.79668 46.3175-9.30156C46.0139-8.96512 45.6263-8.72548 45.203-8.59731C44.7798-8.46913 44.3208-8.45242 43.8745-8.56181L37.0459-10.2357C35.3749-10.6453 33.8882-11.4867 32.7163-12.6325C31.5443-13.7783 30.687-15.2285 30.2745-16.8558L29.2877-20.7493C29.1121-21.4423 29.2419-22.1389 29.5937-22.705ZM74.5645-63.4184L83.4589-55.5939C85.9623-53.3917 87.3152-50.4126 87.479-47.3729C87.6428-44.3332 86.6175-41.2329 84.3645-38.7882L59.718-12.0441C57.4578-9.59155 54.3894-8.26217 51.2556-8.09548C48.1219-7.9288 44.9227-8.92482 42.4026-11.1216L33.5082-18.9461C31.0048-21.1484 29.6519-24.1275 29.4881-27.1672C29.3243-30.2069 30.3496-33.3072 32.6026-35.7519L57.2491-62.4959C59.5093-64.9485 62.5777-66.2779 65.7115-66.4446C68.8452-66.6112 72.0444-65.6152 74.5645-63.4184ZM29.1423-3.61658L89.1423-3.61658L89.1423-1.61658L29.1423-1.61658Z"/>
   <path class="monochrome-0 monochrome-1 multicolor-0:tintColor multicolor-1:tintColor hierarchical-0:primary hierarchical-1:secondary SFSymbolsPreviewWireframe" d="M37.0095-34.2798C41.3259-30.5284 44.565-27.7043 46.727-25.8078C49.1284-23.7012 52.7344-20.5204 57.5447-16.2655C58.4471-15.4739 60.3691-14.0078 60.7576-13.2694C61.146-12.531 60.3958-12.3546 60.0872-12.0173L58.0373-10.3738C57.7278-10.0354 56.7959-9.47259 55.9989-9.77027C55.2019-10.0679 54.2781-11.2261 53.3731-12.0173C48.3184-16.7932 44.4435-20.3632 41.7485-22.7274C39.8801-24.3664 36.9971-26.8011 33.0994-30.0316C32.5081-30.5504 32.0075-31.0951 31.6233-31.6168C31.4212-31.8911 30.969-32.5154 30.8351-32.7699C30.4467-33.5083 30.6433-33.7769 30.9516-34.1144C31.2687-34.46 31.8292-35.0716 32.6332-35.9491C32.9427-36.2874 33.2594-36.8753 34.0564-36.5777C34.8534-36.28 36.1044-35.071 37.0095-34.2798Z"/>
  </g>
  <g id="Regular-S" transform="matrix(1 0 0 1 1402.33 696)">
   <path class="monochrome-0 multicolor-0:tintColor hierarchical-0:primary SFSymbolsPreviewWireframe" d="M15.7774-6.34407L13.499-8.84943L10.846-11.0508L14.1679-16.8827L22.7167-9.78902L23.2237-11.8394L25.1817-9.68656ZM52.5856-68.5891L73.0949-50.5467C73.9961-49.7539 74.4831-48.6814 74.5421-47.5871C74.6011-46.4928 74.232-45.3767 73.4213-44.4962L69.0703-39.7757C68.2566-38.8928 67.152-38.4142 66.0238-38.3542C64.8957-38.2942 63.744-38.6528 62.8378-39.4427L42.3285-57.4851C41.4273-58.2779 40.9403-59.3504 40.8813-60.4447C40.8224-61.539 41.1915-62.6551 42.0021-63.5356L46.3532-68.2561C47.1668-69.139 48.2715-69.6176 49.3996-69.6776C50.5278-69.7376 51.6795-69.379 52.5856-68.5891Z"/>
   <path class="monochrome-1 multicolor-1:tintColor hierarchical-1:secondary SFSymbolsPreviewWireframe" d="M13.6137-22.705C13.9655-23.271 14.5394-23.7066 15.2519-23.8774C16.0955-24.0796 16.9876-23.868 17.6407-23.3106L30.1116-12.6679C30.6207-12.2334 30.9005-11.6394 30.9414-11.0302C30.9823-10.421 30.7842-9.79668 30.3375-9.30156C30.0339-8.96512 29.6463-8.72548 29.223-8.59731C28.7998-8.46913 28.3408-8.45242 27.8945-8.56181L21.0659-10.2357C19.3949-10.6453 17.9082-11.4867 16.7363-12.6325C15.5643-13.7783 14.707-15.2285 14.2945-16.8558L13.3077-20.7493C13.1321-21.4423 13.2619-22.1389 13.6137-22.705ZM58.5845-63.4184L67.4789-55.5939C69.9823-53.3917 71.3352-50.4126 71.499-47.3729C71.6628-44.3332 70.6375-41.2329 68.3845-38.7882L43.738-12.0441C41.4778-9.59155 38.4094-8.26217 35.2756-8.09548C32.1419-7.9288 28.9427-8.92482 26.4226-11.1216L17.5282-18.9461C15.0248-21.1484 13.6719-24.1275 13.5081-27.1672C13.3443-30.2069 14.3696-33.3072 16.6226-35.7519L41.2691-62.4959C43.5293-64.9485 46.5977-66.2779 49.7315-66.4446C52.8652-66.6112 56.0644-65.6152 58.5845-63.4184ZM13.1623-3.61658L73.1623-3.61658L73.1623-1.61658L13.1623-1.61658Z"/>
   <path class="monochrome-0 monochrome-1 multicolor-0:tintColor multicolor-1:tintColor hierarchical-0:primary hierarchical-1:secondary SFSymbolsPreviewWireframe" d="M21.0295-34.2798C25.3459-30.5284 28.585-27.7043 30.747-25.8078C33.1484-23.7012 36.7544-20.5204 41.5647-16.2655C42.4671-15.4739 44.3891-14.0078 44.7776-13.2694C45.166-12.531 44.4158-12.3546 44.1072-12.0173L42.0573-10.3738C41.7478-10.0354 40.8159-9.47259 40.0189-9.77027C39.2219-10.0679 38.2981-11.2261 37.3931-12.0173C32.3384-16.7932 28.4635-20.3632 25.7685-22.7274C23.9001-24.3664 21.0171-26.8011 17.1194-30.0316C16.5281-30.5504 16.0275-31.0951 15.6433-31.6168C15.4412-31.8911 14.989-32.5154 14.8551-32.7699C14.4667-33.5083 14.6633-33.7769 14.9716-34.1144C15.2887-34.46 15.8492-35.0716 16.6532-35.9491C16.9627-36.2874 17.2794-36.8753 18.0764-36.5777C18.8734-36.28 20.1244-35.071 21.0295-34.2798Z"/>
  </g>
  <g id="Ultralight-S" transform="matrix(1 0 0 1 515.335 696)">
   <path class="monochrome-0 multicolor-0:tintColor hierarchical-0:primary SFSymbolsPreviewWireframe" d="M23.5264-6.34407L21.248-8.84943L18.595-11.0508L21.9169-16.8827L30.4657-9.78902L30.9727-11.8394L32.9307-9.68656ZM60.3346-68.5891L80.8439-50.5467C81.7451-49.7539 82.2321-48.6814 82.2911-47.5871C82.3501-46.4928 81.981-45.3767 81.1703-44.4962L76.8193-39.7757C76.0056-38.8928 74.901-38.4142 73.7728-38.3542C72.6447-38.2942 71.493-38.6528 70.5868-39.4427L50.0775-57.4851C49.1763-58.2779 48.6893-59.3504 48.6303-60.4447C48.5714-61.539 48.9405-62.6551 49.7511-63.5356L54.1022-68.2561C54.9158-69.139 56.0205-69.6176 57.1486-69.6776C58.2768-69.7376 59.4285-69.379 60.3346-68.5891Z"/>
   <path class="monochrome-1 multicolor-1:tintColor hierarchical-1:secondary SFSymbolsPreviewWireframe" d="M21.3627-22.705C21.7145-23.271 22.2884-23.7066 23.0009-23.8774C23.8445-24.0796 24.7366-23.868 25.3897-23.3106L37.8606-12.6679C38.3697-12.2334 38.6495-11.6394 38.6904-11.0302C38.7313-10.421 38.5332-9.79668 38.0865-9.30156C37.7829-8.96512 37.3953-8.72548 36.972-8.59731C36.5488-8.46913 36.0898-8.45242 35.6435-8.56181L28.8149-10.2357C27.1439-10.6453 25.6572-11.4867 24.4853-12.6325C23.3133-13.7783 22.456-15.2285 22.0435-16.8558L21.0567-20.7493C20.8811-21.4423 21.0109-22.1389 21.3627-22.705ZM66.3335-63.4184L75.2279-55.5939C77.7313-53.3917 79.0842-50.4126 79.248-47.3729C79.4118-44.3332 78.3865-41.2329 76.1335-38.7882L51.487-12.0441C49.2268-9.59155 46.1584-8.26217 43.0246-8.09548C39.8909-7.9288 36.6917-8.92482 34.1716-11.1216L25.2772-18.9461C22.7738-21.1484 21.4209-24.1275 21.2571-27.1672C21.0933-30.2069 22.1186-33.3072 24.3716-35.7519L49.0181-62.4959C51.2783-64.9485 54.3467-66.2779 57.4805-66.4446C60.6142-66.6112 63.8134-65.6152 66.3335-63.4184ZM20.9113-3.61658L80.9113-3.61658L80.9113-1.61658L20.9113-1.61658Z"/>
   <path class="monochrome-0 monochrome-1 multicolor-0:tintColor multicolor-1:tintColor hierarchical-0:primary hierarchical-1:secondary SFSymbolsPreviewWireframe" d="M28.7785-34.2798C33.0949-30.5284 36.334-27.7043 38.496-25.8078C40.8974-23.7012 44.5034-20.5204 49.3137-16.2655C50.2161-15.4739 52.1381-14.0078 52.5266-13.2694C52.915-12.531 52.1648-12.3546 51.8562-12.0173L49.8063-10.3738C49.4968-10.0354 48.5649-9.47259 47.7679-9.77027C46.9709-10.0679 46.0471-11.2261 45.1421-12.0173C40.0874-16.7932 36.2125-20.3632 33.5175-22.7274C31.6491-24.3664 28.7661-26.8011 24.8684-30.0316C24.2771-30.5504 23.7765-31.0951 23.3923-31.6168C23.1902-31.8911 22.738-32.5154 22.6041-32.7699C22.2157-33.5083 22.4123-33.7769 22.7206-34.1144C23.0377-34.46 23.5982-35.0716 24.4022-35.9491C24.7117-36.2874 25.0284-36.8753 25.8254-36.5777C26.6224-36.28 27.8734-35.071 28.7785-34.2798Z"/>
  </g>
 </g>
</svg>
