<?xml version="1.0" encoding="UTF-8"?>
<!--Generator: Apple Native CoreSVG 232.5-->
<!DOCTYPE svg
PUBLIC "-//W3C//DTD SVG 1.1//EN"
       "http://www.w3.org/Graphics/SVG/1.1/DTD/svg11.dtd">
<svg version="1.1" xmlns="http://www.w3.org/2000/svg" xmlns:xlink="http://www.w3.org/1999/xlink" width="3300" height="2200">
 <!--glyph: "", point size: 100.0, font version: "19.2d2e1", template writer version: "128"-->
 <style>.monochrome-0 {-sfsymbols-motion-group:2}
.monochrome-1 {-sfsymbols-motion-group:1}
.monochrome-2 {-sfsymbols-motion-group:0}

.multicolor-0:tintColor {-sfsymbols-motion-group:2}
.multicolor-1:tintColor {-sfsymbols-motion-group:1}
.multicolor-2:tintColor {-sfsymbols-motion-group:0}

.hierarchical-0:primary {-sfsymbols-motion-group:2}
.hierarchical-1:secondary {-sfsymbols-motion-group:1}
.hierarchical-2:tertiary {-sfsymbols-motion-group:0}

.SFSymbolsPreviewWireframe {fill:none;opacity:1.0;stroke:black;stroke-width:0.5}
</style>
 <g id="Notes">
  <rect height="2200" id="artboard" style="fill:white;opacity:1" width="3300" x="0" y="0"/>
  <line style="fill:none;stroke:black;opacity:1;stroke-width:0.5;" x1="263" x2="3036" y1="292" y2="292"/>
  <text style="stroke:none;fill:black;font-family:sans-serif;font-size:13;font-weight:bold;" transform="matrix(1 0 0 1 263 322)">Weight/Scale Variations</text>
  <text style="stroke:none;fill:black;font-family:sans-serif;font-size:13;text-anchor:middle;" transform="matrix(1 0 0 1 559.711 322)">Ultralight</text>
  <text style="stroke:none;fill:black;font-family:sans-serif;font-size:13;text-anchor:middle;" transform="matrix(1 0 0 1 856.422 322)">Thin</text>
  <text style="stroke:none;fill:black;font-family:sans-serif;font-size:13;text-anchor:middle;" transform="matrix(1 0 0 1 1153.13 322)">Light</text>
  <text style="stroke:none;fill:black;font-family:sans-serif;font-size:13;text-anchor:middle;" transform="matrix(1 0 0 1 1449.84 322)">Regular</text>
  <text style="stroke:none;fill:black;font-family:sans-serif;font-size:13;text-anchor:middle;" transform="matrix(1 0 0 1 1746.56 322)">Medium</text>
  <text style="stroke:none;fill:black;font-family:sans-serif;font-size:13;text-anchor:middle;" transform="matrix(1 0 0 1 2043.27 322)">Semibold</text>
  <text style="stroke:none;fill:black;font-family:sans-serif;font-size:13;text-anchor:middle;" transform="matrix(1 0 0 1 2339.98 322)">Bold</text>
  <text style="stroke:none;fill:black;font-family:sans-serif;font-size:13;text-anchor:middle;" transform="matrix(1 0 0 1 2636.69 322)">Heavy</text>
  <text style="stroke:none;fill:black;font-family:sans-serif;font-size:13;text-anchor:middle;" transform="matrix(1 0 0 1 2933.4 322)">Black</text>
  <line style="fill:none;stroke:black;opacity:1;stroke-width:0.5;" x1="263" x2="3036" y1="1903" y2="1903"/>
  <g transform="matrix(0.2 0 0 0.2 263 1933)">
   <path d="m46.2402 4.15039c21.5332 0 39.4531-17.8711 39.4531-39.4043s-17.9688-39.4043-39.502-39.4043c-21.4844 0-39.3555 17.8711-39.3555 39.4043s17.9199 39.4043 39.4043 39.4043Zm0-7.42188c-17.7246 0-31.8848-14.209-31.8848-31.9824s14.1113-31.9824 31.8359-31.9824c17.7734 0 32.0312 14.209 32.0312 31.9824s-14.209 31.9824-31.9824 31.9824Zm-17.9688-31.9824c0 2.14844 1.51367 3.61328 3.75977 3.61328h10.498v10.5957c0 2.19727 1.46484 3.71094 3.61328 3.71094 2.24609 0 3.71094-1.51367 3.71094-3.71094v-10.5957h10.5957c2.19727 0 3.71094-1.46484 3.71094-3.61328 0-2.19727-1.51367-3.71094-3.71094-3.71094h-10.5957v-10.5469c0-2.24609-1.46484-3.75977-3.71094-3.75977-2.14844 0-3.61328 1.51367-3.61328 3.75977v10.5469h-10.498c-2.24609 0-3.75977 1.51367-3.75977 3.71094Z"/>
  </g>
  <g transform="matrix(0.2 0 0 0.2 281.506 1933)">
   <path d="m58.5449 14.5508c27.2461 0 49.8047-22.6074 49.8047-49.8047 0-27.2461-22.6074-49.8047-49.8535-49.8047-27.1973 0-49.7559 22.5586-49.7559 49.8047 0 27.1973 22.6074 49.8047 49.8047 49.8047Zm0-8.30078c-23.0469 0-41.4551-18.457-41.4551-41.5039s18.3594-41.5039 41.4062-41.5039 41.5527 18.457 41.5527 41.5039-18.457 41.5039-41.5039 41.5039Zm-22.6562-41.5039c0 2.39258 1.66016 4.00391 4.15039 4.00391h14.3555v14.4043c0 2.44141 1.66016 4.15039 4.05273 4.15039 2.44141 0 4.15039-1.66016 4.15039-4.15039v-14.4043h14.4043c2.44141 0 4.15039-1.61133 4.15039-4.00391 0-2.44141-1.70898-4.15039-4.15039-4.15039h-14.4043v-14.3555c0-2.49023-1.70898-4.19922-4.15039-4.19922-2.39258 0-4.05273 1.70898-4.05273 4.19922v14.3555h-14.3555c-2.49023 0-4.15039 1.70898-4.15039 4.15039Z"/>
  </g>
  <g transform="matrix(0.2 0 0 0.2 304.924 1933)">
   <path d="m74.8535 28.3203c34.8145 0 63.623-28.8086 63.623-63.5742 0-34.8145-28.8574-63.623-63.6719-63.623-34.7656 0-63.5254 28.8086-63.5254 63.623 0 34.7656 28.8086 63.5742 63.5742 63.5742Zm0-9.08203c-30.1758 0-54.4434-24.3164-54.4434-54.4922 0-30.2246 24.2188-54.4922 54.3945-54.4922 30.2246 0 54.541 24.2676 54.541 54.4922 0 30.1758-24.2676 54.4922-54.4922 54.4922Zm-28.8574-54.4922c0 2.58789 1.85547 4.39453 4.58984 4.39453h19.7266v19.7754c0 2.68555 1.85547 4.58984 4.44336 4.58984 2.68555 0 4.54102-1.85547 4.54102-4.58984v-19.7754h19.7754c2.68555 0 4.58984-1.80664 4.58984-4.39453 0-2.73438-1.85547-4.58984-4.58984-4.58984h-19.7754v-19.7266c0-2.73438-1.85547-4.63867-4.54102-4.63867-2.58789 0-4.44336 1.9043-4.44336 4.63867v19.7266h-19.7266c-2.73438 0-4.58984 1.85547-4.58984 4.58984Z"/>
  </g>
  <text style="stroke:none;fill:black;font-family:sans-serif;font-size:13;font-weight:bold;" transform="matrix(1 0 0 1 263 1953)">Design Variations</text>
  <text style="stroke:none;fill:black;font-family:sans-serif;font-size:13;" transform="matrix(1 0 0 1 263 1971)">Symbols are supported in up to nine weights and three scales.</text>
  <text style="stroke:none;fill:black;font-family:sans-serif;font-size:13;" transform="matrix(1 0 0 1 263 1989)">For optimal layout with text and other symbols, vertically align</text>
  <text style="stroke:none;fill:black;font-family:sans-serif;font-size:13;" transform="matrix(1 0 0 1 263 2007)">symbols with the adjacent text.</text>
  <line style="fill:none;stroke:#00AEEF;stroke-width:0.5;opacity:1.0;" x1="776" x2="776" y1="1919" y2="1933"/>
  <g transform="matrix(0.2 0 0 0.2 776 1933)">
   <path d="m16.5527 0.78125c2.58789 0 3.85742-0.976562 4.78516-3.71094l6.29883-17.2363h28.8086l6.29883 17.2363c0.927734 2.73438 2.19727 3.71094 4.73633 3.71094 2.58789 0 4.24805-1.5625 4.24805-4.00391 0-0.830078-0.146484-1.61133-0.537109-2.63672l-22.9004-60.9863c-1.12305-2.97852-3.125-4.49219-6.25-4.49219-3.02734 0-5.07812 1.46484-6.15234 4.44336l-22.9004 61.084c-0.390625 1.02539-0.537109 1.80664-0.537109 2.63672 0 2.44141 1.5625 3.95508 4.10156 3.95508Zm13.4766-28.3691 11.8652-32.8613h0.244141l11.8652 32.8613Z"/>
  </g>
  <line style="fill:none;stroke:#00AEEF;stroke-width:0.5;opacity:1.0;" x1="792.836" x2="792.836" y1="1919" y2="1933"/>
  <text style="stroke:none;fill:black;font-family:sans-serif;font-size:13;font-weight:bold;" transform="matrix(1 0 0 1 776 1953)">Margins</text>
  <text style="stroke:none;fill:black;font-family:sans-serif;font-size:13;" transform="matrix(1 0 0 1 776 1971)">Leading and trailing margins on the left and right side of each symbol</text>
  <text style="stroke:none;fill:black;font-family:sans-serif;font-size:13;" transform="matrix(1 0 0 1 776 1989)">can be adjusted by modifying the x-location of the margin guidelines.</text>
  <text style="stroke:none;fill:black;font-family:sans-serif;font-size:13;" transform="matrix(1 0 0 1 776 2007)">Modifications are automatically applied proportionally to all</text>
  <text style="stroke:none;fill:black;font-family:sans-serif;font-size:13;" transform="matrix(1 0 0 1 776 2025)">scales and weights.</text>
  <g transform="matrix(0.2 0 0 0.2 1289 1933)">
   <path d="m14.209 9.32617 8.49609 8.54492c4.29688 4.3457 9.22852 4.05273 13.8672-1.07422l53.4668-58.9355-4.83398-4.88281-53.0762 58.3984c-1.75781 2.00195-3.41797 2.49023-5.76172 0.146484l-5.85938-5.81055c-2.34375-2.29492-1.80664-4.00391 0.195312-5.81055l57.373-54.0039-4.88281-4.83398-57.959 54.4434c-4.93164 4.58984-5.32227 9.47266-1.02539 13.8184Zm32.0801-90.9668c-2.09961 2.05078-2.24609 4.93164-1.07422 6.88477 1.17188 1.80664 3.4668 2.97852 6.68945 2.14844 7.32422-1.70898 14.9414-2.00195 22.0703 2.68555l-2.92969 7.27539c-1.70898 4.15039-0.830078 7.08008 1.85547 9.81445l11.4746 11.5723c2.44141 2.44141 4.49219 2.53906 7.32422 2.05078l5.32227-0.976562 3.32031 3.36914-0.195312 2.7832c-0.195312 2.49023 0.439453 4.39453 2.88086 6.78711l3.80859 3.71094c2.39258 2.39258 5.46875 2.53906 7.8125 0.195312l14.5508-14.5996c2.34375-2.34375 2.24609-5.32227-0.146484-7.71484l-3.85742-3.80859c-2.39258-2.39258-4.24805-3.17383-6.64062-2.97852l-2.88086 0.244141-3.22266-3.17383 1.2207-5.61523c0.634766-2.83203-0.146484-5.0293-3.07617-7.95898l-10.9863-10.9375c-16.6992-16.6016-38.8672-16.2109-53.3203-1.75781Zm7.4707 1.85547c12.1582-8.88672 28.6133-7.37305 39.7461 3.75977l12.1582 12.0605c1.17188 1.17188 1.36719 2.09961 1.02539 3.80859l-1.61133 7.42188 7.51953 7.42188 4.93164-0.292969c1.26953-0.0488281 1.66016 0.0488281 2.63672 1.02539l2.88086 2.88086-12.207 12.207-2.88086-2.88086c-0.976562-0.976562-1.12305-1.36719-1.07422-2.68555l0.341797-4.88281-7.4707-7.42188-7.61719 1.26953c-1.61133 0.341797-2.34375 0.195312-3.56445-0.976562l-10.0098-10.0098c-1.26953-1.17188-1.41602-2.00195-0.634766-3.85742l4.39453-10.4492c-7.8125-7.27539-17.9688-10.4004-28.125-7.42188-0.78125 0.195312-1.07422-0.439453-0.439453-0.976562Z"/>
  </g>
  <text style="stroke:none;fill:black;font-family:sans-serif;font-size:13;font-weight:bold;" transform="matrix(1 0 0 1 1289 1953)">Exporting</text>
  <text style="stroke:none;fill:black;font-family:sans-serif;font-size:13;" transform="matrix(1 0 0 1 1289 1971)">Symbols should be outlined when exporting to ensure the</text>
  <text style="stroke:none;fill:black;font-family:sans-serif;font-size:13;" transform="matrix(1 0 0 1 1289 1989)">design is preserved when submitting to Xcode.</text>
  <text id="template-version" style="stroke:none;fill:black;font-family:sans-serif;font-size:13;text-anchor:end;" transform="matrix(1 0 0 1 3036 1933)">Template v.5.0</text>
  <text style="stroke:none;fill:black;font-family:sans-serif;font-size:13;text-anchor:end;" transform="matrix(1 0 0 1 3036 1951)">Requires Xcode 15 or greater</text>
  <text id="descriptive-name" style="stroke:none;fill:black;font-family:sans-serif;font-size:13;text-anchor:end;" transform="matrix(1 0 0 1 3036 1969)">Generated from Pencil</text>
  <text style="stroke:none;fill:black;font-family:sans-serif;font-size:13;text-anchor:end;" transform="matrix(1 0 0 1 3036 1987)">Typeset at 100.0 points</text>
  <text style="stroke:none;fill:black;font-family:sans-serif;font-size:13;" transform="matrix(1 0 0 1 263 726)">Small</text>
  <text style="stroke:none;fill:black;font-family:sans-serif;font-size:13;" transform="matrix(1 0 0 1 263 1156)">Medium</text>
  <text style="stroke:none;fill:black;font-family:sans-serif;font-size:13;" transform="matrix(1 0 0 1 263 1586)">Large</text>
 </g>
 <g id="Guides">
  <g id="H-reference" style="fill:#27AAE1;stroke:none;" transform="matrix(1 0 0 1 339 696)">
   <path d="M0.993654 0L3.63775 0L29.3281-67.1323L30.0303-67.1323L30.0303-70.459L28.1226-70.459ZM11.6885-24.4799L46.9815-24.4799L46.2315-26.7285L12.4385-26.7285ZM55.1196 0L57.7637 0L30.6382-70.459L29.4326-70.459L29.4326-67.1323Z"/>
  </g>
  <line id="Baseline-S" style="fill:none;stroke:#27AAE1;opacity:1;stroke-width:0.5;" x1="263" x2="3036" y1="696" y2="696"/>
  <line id="Capline-S" style="fill:none;stroke:#27AAE1;opacity:1;stroke-width:0.5;" x1="263" x2="3036" y1="625.541" y2="625.541"/>
  <g id="H-reference" style="fill:#27AAE1;stroke:none;" transform="matrix(1 0 0 1 339 1126)">
   <path d="M0.993654 0L3.63775 0L29.3281-67.1323L30.0303-67.1323L30.0303-70.459L28.1226-70.459ZM11.6885-24.4799L46.9815-24.4799L46.2315-26.7285L12.4385-26.7285ZM55.1196 0L57.7637 0L30.6382-70.459L29.4326-70.459L29.4326-67.1323Z"/>
  </g>
  <line id="Baseline-M" style="fill:none;stroke:#27AAE1;opacity:1;stroke-width:0.5;" x1="263" x2="3036" y1="1126" y2="1126"/>
  <line id="Capline-M" style="fill:none;stroke:#27AAE1;opacity:1;stroke-width:0.5;" x1="263" x2="3036" y1="1055.54" y2="1055.54"/>
  <g id="H-reference" style="fill:#27AAE1;stroke:none;" transform="matrix(1 0 0 1 339 1556)">
   <path d="M0.993654 0L3.63775 0L29.3281-67.1323L30.0303-67.1323L30.0303-70.459L28.1226-70.459ZM11.6885-24.4799L46.9815-24.4799L46.2315-26.7285L12.4385-26.7285ZM55.1196 0L57.7637 0L30.6382-70.459L29.4326-70.459L29.4326-67.1323Z"/>
  </g>
  <line id="Baseline-L" style="fill:none;stroke:#27AAE1;opacity:1;stroke-width:0.5;" x1="263" x2="3036" y1="1556" y2="1556"/>
  <line id="Capline-L" style="fill:none;stroke:#27AAE1;opacity:1;stroke-width:0.5;" x1="263" x2="3036" y1="1485.54" y2="1485.54"/>
  <line id="left-margin-Ultralight-S" style="fill:none;stroke:#00AEEF;stroke-width:0.5;opacity:1.0;" x1="515.335" x2="515.335" y1="600.785" y2="720.121"/>
  <line id="right-margin-Ultralight-S" style="fill:none;stroke:#00AEEF;stroke-width:0.5;opacity:1.0;" x1="604.088" x2="604.088" y1="600.785" y2="720.121"/>
  <line id="left-margin-Regular-S" style="fill:none;stroke:#00AEEF;stroke-width:0.5;opacity:1.0;" x1="1402.33" x2="1402.33" y1="600.785" y2="720.121"/>
  <line id="right-margin-Regular-S" style="fill:none;stroke:#00AEEF;stroke-width:0.5;opacity:1.0;" x1="1497.35" x2="1497.35" y1="600.785" y2="720.121"/>
  <line id="left-margin-Black-S" style="fill:none;stroke:#00AEEF;stroke-width:0.5;opacity:1.0;" x1="2879.35" x2="2879.35" y1="600.785" y2="720.121"/>
  <line id="right-margin-Black-S" style="fill:none;stroke:#00AEEF;stroke-width:0.5;opacity:1.0;" x1="2987.45" x2="2987.45" y1="600.785" y2="720.121"/>
 </g>
 <g id="Symbols">
  <g id="Black-S" transform="matrix(1 0 0 1 2879.35 696)">
   <path class="monochrome-0 multicolor-0:tintColor hierarchical-0:primary SFSymbolsPreviewWireframe" d="M35.4912-29.2666L55.3304-11.959L30.0329-2.51877L29.5642-2.89835L34.0338-28.7538L35.4912-29.2666ZM76.5838-62.4185L85.4783-54.594C87.9816-52.3917 89.3345-49.4126 89.4983-46.3729C89.6621-43.3332 88.6368-40.2329 86.3839-37.7882L61.7374-11.0442C59.4771-8.59159 56.4088-7.26221 53.275-7.09552C50.1412-6.92884 46.9421-7.92486 44.422-10.1216L35.5275-17.9461C33.0242-20.1484 31.6713-23.1275 31.5075-26.1672C31.3437-29.2069 32.369-32.3072 34.6219-34.7519L59.2684-61.4959C61.5287-63.9485 64.597-65.2779 67.7308-65.4446C70.8646-65.6113 74.0637-64.6153 76.5838-62.4185Z"/>
   <path class="monochrome-0 monochrome-1 multicolor-0:tintColor multicolor-1:tintColor hierarchical-0:primary hierarchical-1:secondary SFSymbolsPreviewWireframe" d="M69.1118-48.7442C69.8612-48.233 70.3669-47.8162 70.6166-47.4823C70.8836-47.1252 71.3352-46.6874 71.9773-46.174L40.5477-13.7659C40.103-14.1165 39.5682-14.539 39.5364-14.5959C39.3428-14.9431 38.604-15.6584 37.2884-16.7215C46.0349-25.2484 52.2886-31.4547 56.0497-35.3401C59.7934-39.2076 64.1476-43.6759 69.1118-48.7442ZM63.1428-53.7735C64.0969-53.239 64.5875-52.81 64.843-52.4705C65.1032-52.1247 65.4982-51.7331 66.0319-51.2994L34.8736-19.1561C34.7092-19.3701 34.5168-19.5985 34.3187-19.8025C33.8067-20.4622 33.3395-21.1749 32.5924-22.2645ZM74.7898-43.7537C75.6025-43.1855 76.1418-42.7381 76.3954-42.4003C76.6715-42.0325 77.2185-41.5307 78.0454-40.903L59.381-21.3381L46.6915-8.92716L46.4089-9.04067C45.8428-9.26726 45.2964-9.48099 45.2287-9.49794C44.7979-9.6058 44.2554-10.2887 43.5417-11.4118C52.2102-20.2517 58.4171-26.6043 62.1623-30.4696C65.8716-34.2979 70.0808-38.7261 74.7898-43.7537ZM86.2845-37.4007C85.553-37.1611 85.3724-36.8327 85.1181-36.4369L66.2969-15.9233C63.9242-13.2427 62.1032-11.3066 60.8327-10.1162C59.6111-8.97147 58.132-7.92815 56.3968-6.98437C52.4789-7.094 50.4764-7.14443 50.3986-7.16791C60.0781-16.6275 66.645-23.0124 69.9439-26.369C73.2463-29.7293 76.8078-33.8117 80.6272-38.6159C81.1661-38.678 81.5851-38.7554 81.738-38.794L81.7656-38.8024L81.776-38.7994C81.936-38.7704 82.5462-38.7139 83.2021-38.65L83.354-38.6351L83.2562-37.6399C83.9791-37.5689 84.8285-37.5994 84.8413-37.5864C85.1044-37.3196 85.8152-37.3044 86.2845-37.4007ZM57.5406-59.5567C58.2687-59.0628 58.6598-58.6078 58.929-58.2593C59.1939-57.9163 59.554-57.4247 60.0095-56.7848L31.7915-26.4353L31.7595-26.755C31.6996-27.4282 31.6722-28.1559 31.7101-28.904L31.7347-29.2796C31.796-30.0434 32.402-31.531 33.513-33.7491Z"/>
   <path class="monochrome-2 multicolor-2:tintColor hierarchical-2:tertiary SFSymbolsPreviewWireframe" d="M70.585-67.5892L91.0943-49.5467C91.9955-48.7539 92.4825-47.6814 92.5415-46.5871C92.6004-45.4928 92.2313-44.3767 91.4207-43.4963L87.0696-38.7758C86.256-37.8928 85.1513-37.4142 84.0232-37.3542C82.895-37.2942 81.7433-37.6528 80.8372-38.4427L60.3279-56.4852C59.4267-57.278 58.9396-58.3504 58.8807-59.4447C58.8217-60.539 59.1908-61.6551 60.0014-62.5356L64.3525-67.2561C65.1662-68.139 66.2708-68.6176 67.399-68.6776C68.5271-68.7376 69.6788-68.3791 70.585-67.5892Z"/>
  </g>
  <g id="Regular-S" transform="matrix(1 0 0 1 1402.33 696)">
   <path class="monochrome-0 multicolor-0:tintColor hierarchical-0:primary SFSymbolsPreviewWireframe" d="M29.5112-30.2666L49.3504-12.959L24.0529-3.51877L23.5842-3.89835L28.0538-29.7538L29.5112-30.2666ZM70.6038-63.4185L79.4983-55.594C82.0016-53.3917 83.3545-50.4126 83.5183-47.3729C83.6821-44.3332 82.6568-41.2329 80.4039-38.7882L55.7574-12.0442C53.4971-9.59159 50.4288-8.26221 47.295-8.09552C44.1612-7.92884 40.9621-8.92486 38.442-11.1216L29.5475-18.9461C27.0442-21.1484 25.6913-24.1275 25.5275-27.1672C25.3637-30.2069 26.389-33.3072 28.6419-35.7519L53.2884-62.4959C55.5487-64.9485 58.617-66.2779 61.7508-66.4446C64.8846-66.6113 68.0837-65.6153 70.6038-63.4185Z"/>
   <path class="monochrome-0 monochrome-1 multicolor-0:tintColor multicolor-1:tintColor hierarchical-0:primary hierarchical-1:secondary SFSymbolsPreviewWireframe" d="M63.1318-49.7442C63.8812-49.233 64.3869-48.8162 64.6366-48.4823C64.9036-48.1252 65.3552-47.6874 65.9973-47.174L34.5677-14.7659C34.123-15.1165 33.5882-15.539 33.5564-15.5959C33.3628-15.9431 32.624-16.6584 31.3084-17.7215C40.0549-26.2484 46.3086-32.4547 50.0697-36.3401C53.8134-40.2076 58.1676-44.6759 63.1318-49.7442ZM57.1628-54.7735C58.1169-54.239 58.6075-53.81 58.863-53.4705C59.1232-53.1247 59.5182-52.7331 60.0519-52.2994L28.8936-20.1561C28.7292-20.3701 28.5368-20.5985 28.3387-20.8025C27.8267-21.4622 27.3595-22.1749 26.6124-23.2645ZM68.8098-44.7537C69.6225-44.1855 70.1618-43.7381 70.4154-43.4003C70.6915-43.0325 71.2385-42.5307 72.0654-41.903L53.401-22.3381L40.7115-9.92716L40.4289-10.0407C39.8628-10.2673 39.3164-10.481 39.2487-10.4979C38.8179-10.6058 38.2754-11.2887 37.5617-12.4118C46.2302-21.2517 52.4371-27.6043 56.1823-31.4696C59.8916-35.2979 64.1008-39.7261 68.8098-44.7537ZM80.3045-38.4007C79.573-38.1611 79.3924-37.8327 79.1381-37.4369L60.3169-16.9233C57.9442-14.2427 56.1232-12.3066 54.8527-11.1162C53.6311-9.97147 52.152-8.92815 50.4168-7.98437C46.4989-8.094 44.4964-8.14443 44.4186-8.16791C54.0981-17.6275 60.665-24.0124 63.9639-27.369C67.2663-30.7293 70.8278-34.8117 74.6472-39.6159C75.1861-39.678 75.6051-39.7554 75.758-39.794L75.7856-39.8024L75.796-39.7994C75.956-39.7704 76.5662-39.7139 77.2221-39.65L77.374-39.6351L77.2762-38.6399C77.9991-38.5689 78.8485-38.5994 78.8613-38.5864C79.1244-38.3196 79.8352-38.3044 80.3045-38.4007ZM51.5606-60.5567C52.2887-60.0628 52.6798-59.6078 52.949-59.2593C53.2139-58.9163 53.574-58.4247 54.0295-57.7848L25.8115-27.4353L25.7795-27.755C25.7196-28.4282 25.6922-29.1559 25.7301-29.904L25.7547-30.2796C25.816-31.0434 26.422-32.531 27.533-34.7491Z"/>
   <path class="monochrome-2 multicolor-2:tintColor hierarchical-2:tertiary SFSymbolsPreviewWireframe" d="M64.605-68.5892L85.1143-50.5467C86.0155-49.7539 86.5025-48.6814 86.5615-47.5871C86.6204-46.4928 86.2513-45.3767 85.4407-44.4963L81.0896-39.7758C80.276-38.8928 79.1713-38.4142 78.0432-38.3542C76.915-38.2942 75.7633-38.6528 74.8572-39.4427L54.3479-57.4852C53.4467-58.278 52.9596-59.3504 52.9007-60.4447C52.8417-61.539 53.2108-62.6551 54.0214-63.5356L58.3725-68.2561C59.1862-69.139 60.2908-69.6176 61.419-69.6776C62.5471-69.7376 63.6988-69.3791 64.605-68.5892Z"/>
  </g>
  <g id="Ultralight-S" transform="matrix(1 0 0 1 515.335 696)">
   <path class="monochrome-0 multicolor-0:tintColor hierarchical-0:primary SFSymbolsPreviewWireframe" d="M23.2409-29.2666L43.0801-11.959L17.7826-2.51877L17.3139-2.89835L21.7835-28.7538L23.2409-29.2666ZM64.3335-62.4185L73.228-54.594C75.7313-52.3917 77.0842-49.4126 77.248-46.3729C77.4118-43.3332 76.3865-40.2329 74.1336-37.7882L49.4871-11.0442C47.2268-8.59159 44.1585-7.26221 41.0247-7.09552C37.8909-6.92884 34.6918-7.92486 32.1717-10.1216L23.2772-17.9461C20.7739-20.1484 19.421-23.1275 19.2572-26.1672C19.0934-29.2069 20.1187-32.3072 22.3716-34.7519L47.0181-61.4959C49.2784-63.9485 52.3467-65.2779 55.4805-65.4446C58.6143-65.6113 61.8134-64.6153 64.3335-62.4185Z"/>
   <path class="monochrome-0 monochrome-1 multicolor-0:tintColor multicolor-1:tintColor hierarchical-0:primary hierarchical-1:secondary SFSymbolsPreviewWireframe" d="M56.8615-48.7442C57.6109-48.233 58.1166-47.8162 58.3663-47.4823C58.6333-47.1252 59.0849-46.6874 59.727-46.174L28.2974-13.7659C27.8527-14.1165 27.3179-14.539 27.2861-14.5959C27.0925-14.9431 26.3537-15.6584 25.0381-16.7215C33.7846-25.2484 40.0383-31.4547 43.7994-35.3401C47.5431-39.2076 51.8973-43.6759 56.8615-48.7442ZM50.8925-53.7735C51.8466-53.239 52.3372-52.81 52.5927-52.4705C52.8529-52.1247 53.2479-51.7331 53.7816-51.2994L22.6233-19.1561C22.4589-19.3701 22.2665-19.5985 22.0684-19.8025C21.5564-20.4622 21.0892-21.1749 20.3421-22.2645ZM62.5395-43.7537C63.3522-43.1855 63.8915-42.7381 64.1451-42.4003C64.4212-42.0325 64.9682-41.5307 65.7951-40.903L47.1307-21.3381L34.4412-8.92716L34.1586-9.04067C33.5925-9.26726 33.0461-9.48099 32.9784-9.49794C32.5476-9.6058 32.0051-10.2887 31.2914-11.4118C39.9599-20.2517 46.1668-26.6043 49.912-30.4696C53.6213-34.2979 57.8305-38.7261 62.5395-43.7537ZM74.0342-37.4007C73.3027-37.1611 73.1221-36.8327 72.8678-36.4369L54.0466-15.9233C51.6739-13.2427 49.8529-11.3066 48.5824-10.1162C47.3608-8.97147 45.8817-7.92815 44.1465-6.98437C40.2286-7.094 38.2261-7.14443 38.1483-7.16791C47.8278-16.6275 54.3947-23.0124 57.6936-26.369C60.996-29.7293 64.5575-33.8117 68.3769-38.6159C68.9158-38.678 69.3348-38.7554 69.4877-38.794L69.5153-38.8024L69.5257-38.7994C69.6857-38.7704 70.2959-38.7139 70.9518-38.65L71.1037-38.6351L71.0059-37.6399C71.7288-37.5689 72.5782-37.5994 72.591-37.5864C72.8541-37.3196 73.5649-37.3044 74.0342-37.4007ZM45.2903-59.5567C46.0184-59.0628 46.4095-58.6078 46.6787-58.2593C46.9436-57.9163 47.3037-57.4247 47.7592-56.7848L19.5412-26.4353L19.5092-26.755C19.4493-27.4282 19.4219-28.1559 19.4598-28.904L19.4844-29.2796C19.5457-30.0434 20.1517-31.531 21.2627-33.7491Z"/>
   <path class="monochrome-2 multicolor-2:tintColor hierarchical-2:tertiary SFSymbolsPreviewWireframe" d="M58.3347-67.5892L78.844-49.5467C79.7452-48.7539 80.2322-47.6814 80.2912-46.5871C80.3501-45.4928 79.981-44.3767 79.1704-43.4963L74.8193-38.7758C74.0057-37.8928 72.901-37.4142 71.7729-37.3542C70.6447-37.2942 69.493-37.6528 68.5869-38.4427L48.0776-56.4852C47.1764-57.278 46.6893-58.3504 46.6304-59.4447C46.5714-60.539 46.9405-61.6551 47.7511-62.5356L52.1022-67.2561C52.9159-68.139 54.0205-68.6176 55.1487-68.6776C56.2768-68.7376 57.4285-68.3791 58.3347-67.5892Z"/>
  </g>
 </g>
</svg>
